<?xml version="1.0" encoding="UTF-8"?><svg id="Layer_2" xmlns="http://www.w3.org/2000/svg" viewBox="0 0 1000 1000"><defs><style>.cls-1{fill:#ffcb31;}.cls-1,.cls-2{stroke-width:0px;}.cls-2{fill:#131313;}</style></defs><g id="Layer_1-2"><rect class="cls-2" width="1000" height="1000"/><path class="cls-1" d="M183.41,542.3c-7.88,8.5-17.08,12.75-27.58,12.75-8.81,0-16.15-3.01-22.02-9.04-5.87-6.03-8.81-15.45-8.81-28.28,0-11.43,2.28-23.45,6.84-36.04,4.56-12.59,11.36-23.25,20.4-31.99,9.04-8.73,19.82-13.09,32.33-13.09,6.33,0,11.05,1.08,14.14,3.24,3.09,2.17,4.64,5.02,4.64,8.58v.46l2.32-11.12h33.38l-35.23,165.49-35,8.34,14.6-69.3ZM181.2,528.16c3.48-2.93,6.06-6.95,7.76-12.05l12.28-57.25c-1.24-5.25-4.4-7.88-9.5-7.88-6.18,0-11.74,3.59-16.69,10.78-4.95,7.19-8.81,15.84-11.59,25.96-2.78,10.12-4.17,19.05-4.17,26.77s1.12,12.67,3.36,14.83c2.24,2.17,4.98,3.24,8.23,3.24s6.84-1.47,10.31-4.4Z"/><path class="cls-1" d="M245.64,548.09c-4.56-4.64-6.84-11.59-6.84-20.86,0-3.86.62-8.88,1.85-15.07l15.76-74.4h33.38l-16.69,78.8c-.46,2.32-.69,4.48-.69,6.49,0,6.34,2.32,9.5,6.95,9.5,4.32,0,8.03-1.81,11.12-5.45,3.09-3.63,5.56-8.61,7.42-14.95l15.76-74.4h33.38l-16.69,78.8c-.62,2.32-.93,4.79-.93,7.42,0,3.09.73,5.29,2.2,6.6,1.47,1.32,3.9,1.97,7.3,1.97,4.32,0,8.07-1.85,11.24-5.56,3.17-3.71,5.68-8.65,7.53-14.83h9.73c-5.72,16.69-12.79,28.01-21.21,33.95-8.42,5.95-16.88,8.92-25.38,8.92-6.65,0-11.94-1.85-15.88-5.56-3.94-3.71-6.3-9.19-7.07-16.46-5.26,8.5-10.78,14.29-16.57,17.38-5.79,3.09-11.7,4.64-17.73,4.64-7.42,0-13.41-2.32-17.96-6.95Z"/><path class="cls-1" d="M362.68,548.09c-4.56-4.64-6.84-11.59-6.84-20.86,0-3.86.62-8.88,1.85-15.07l15.76-74.4h33.38l-16.69,78.8c-.62,2.32-.93,4.79-.93,7.42,0,3.09.73,5.29,2.2,6.6,1.47,1.32,3.9,1.97,7.3,1.97,4.48,0,8.65-1.89,12.52-5.68,3.86-3.78,6.64-8.69,8.34-14.72h9.73c-5.72,16.69-13.06,28.01-22.02,33.95-8.96,5.95-17.85,8.92-26.65,8.92-7.42,0-13.41-2.32-17.96-6.95ZM383.42,419.92c-3.56-3.55-5.33-7.88-5.33-12.98s1.77-9.46,5.33-13.09c3.55-3.63,7.88-5.45,12.98-5.45s9.46,1.82,13.09,5.45c3.63,3.63,5.45,8,5.45,13.09s-1.82,9.43-5.45,12.98c-3.63,3.56-8,5.33-13.09,5.33s-9.43-1.77-12.98-5.33Z"/><path class="cls-1" d="M426.3,547.28c-5.56-5.18-8.34-12.48-8.34-21.9,0-4.64.54-9.04,1.62-13.21l24.8-116.12,34.3-4.64-11.12,52.15c4.32-2.63,7.88-4.36,10.66-5.21,2.78-.85,5.56-1.27,8.34-1.27,18.23,0,27.35,13.21,27.35,39.63,0,10.66-2.05,22.06-6.14,34.19-4.1,12.13-10.89,22.52-20.4,31.17-9.5,8.66-21.83,12.98-36.97,12.98-10.51,0-18.54-2.59-24.1-7.76ZM476.83,523.64c4.17-5.95,7.49-13.36,9.97-22.25,2.47-8.88,3.71-17.42,3.71-25.61,0-6.18-1.08-11.43-3.24-15.76-2.17-4.32-5.18-6.49-9.04-6.49-2.32,0-4.91.35-7.76,1.04-2.86.69-4.83,1.74-5.91,3.13l-12.75,58.87c-.46,1.85-.69,3.63-.69,5.33,0,7.11,4.09,10.66,12.28,10.66,4.79,0,9.27-2.97,13.44-8.92Z"/><path class="cls-1" d="M529.2,547.28c-5.56-5.18-8.34-12.48-8.34-21.9,0-4.64.54-9.04,1.62-13.21l24.8-116.12,34.3-4.64-11.12,52.15c4.32-2.63,7.88-4.36,10.66-5.21,2.78-.85,5.56-1.27,8.34-1.27,18.23,0,27.35,13.21,27.35,39.63,0,10.66-2.05,22.06-6.14,34.19-4.1,12.13-10.89,22.52-20.4,31.17-9.5,8.66-21.83,12.98-36.97,12.98-10.51,0-18.54-2.59-24.1-7.76ZM579.73,523.64c4.17-5.95,7.49-13.36,9.97-22.25,2.47-8.88,3.71-17.42,3.71-25.61,0-6.18-1.08-11.43-3.24-15.76-2.17-4.32-5.18-6.49-9.04-6.49-2.32,0-4.91.35-7.76,1.04-2.86.69-4.83,1.74-5.91,3.13l-12.75,58.87c-.46,1.85-.69,3.63-.69,5.33,0,7.11,4.09,10.66,12.28,10.66,4.79,0,9.27-2.97,13.44-8.92Z"/><path class="cls-1" d="M632.11,547.28c-5.56-5.18-8.34-12.48-8.34-21.9,0-4.64.54-9.04,1.62-13.21l24.8-116.12,34.3-4.64-11.12,52.15c4.32-2.63,7.88-4.36,10.66-5.21,2.78-.85,5.56-1.27,8.34-1.27,18.23,0,27.35,13.21,27.35,39.63,0,10.66-2.05,22.06-6.14,34.19-4.1,12.13-10.89,22.52-20.4,31.17-9.5,8.66-21.83,12.98-36.97,12.98-10.51,0-18.54-2.59-24.1-7.76ZM682.63,523.64c4.17-5.95,7.49-13.36,9.97-22.25,2.47-8.88,3.71-17.42,3.71-25.61,0-6.18-1.08-11.43-3.24-15.76-2.17-4.32-5.18-6.49-9.04-6.49-2.32,0-4.91.35-7.76,1.04-2.86.69-4.83,1.74-5.91,3.13l-12.75,58.87c-.46,1.85-.69,3.63-.69,5.33,0,7.11,4.09,10.66,12.28,10.66,4.79,0,9.27-2.97,13.44-8.92Z"/><path class="cls-1" d="M733.27,548.09c-4.56-4.64-6.84-11.59-6.84-20.86,0-3.86.62-8.88,1.85-15.07l24.8-116.12,34.3-4.64-26.65,125.16c-.62,2.32-.93,4.79-.93,7.42,0,3.09.73,5.29,2.2,6.6,1.47,1.32,3.9,1.97,7.3,1.97,4.48,0,8.65-1.89,12.52-5.68,3.86-3.78,6.64-8.69,8.34-14.72h9.73c-5.72,16.69-13.06,28.01-22.02,33.95-8.96,5.95-17.85,8.92-26.65,8.92-7.42,0-13.41-2.32-17.96-6.95Z"/><path class="cls-1" d="M796.43,546.12c-6.33-5.95-9.5-15.26-9.5-27.93,0-10.66,2.09-22.4,6.26-35.23,4.17-12.82,10.97-23.91,20.4-33.26,9.42-9.35,21.4-14.02,35.92-14.02,16.99,0,25.49,7.42,25.49,22.25,0,8.66-2.47,16.61-7.42,23.87-4.95,7.26-11.51,13.09-19.7,17.5-8.19,4.4-16.92,6.92-26.19,7.53-.31,3.4-.46,5.72-.46,6.95,0,12.83,4.79,19.24,14.37,19.24,4.32,0,8.96-1.16,13.91-3.48,4.94-2.32,9.42-5.25,13.44-8.81-4.17,22.87-17.54,34.3-40.1,34.3-11.28,0-20.09-2.97-26.42-8.92ZM839.89,489.92c5.17-3.71,9.35-8.46,12.52-14.25,3.17-5.79,4.75-11.86,4.75-18.19s-1.93-9.5-5.79-9.5c-5.41,0-10.78,4.91-16.11,14.72-5.33,9.81-9.31,20.82-11.94,33.03,5.87-.15,11.39-2.09,16.57-5.79Z"/></g></svg>